<svg xmlns="http://www.w3.org/2000/svg" aria-hidden="true" style="position:absolute;width:0;height:0;overflow:hidden">
  <defs>
    <symbol id="icon-ellipsis" viewBox="0 0 134 32">
      <path fill="#bbc0ff" d="M16 0c8.837 0 16 7.163 16 16s-7.163 16-16 16S0 24.837 0 16 7.163 0 16 0zm51.2 0c8.837 0 16 7.163 16 16s-7.163 16-16 16-16-7.163-16-16 7.163-16 16-16zm51.2 0c8.837 0 16 7.163 16 16s-7.163 16-16 16-16-7.163-16-16 7.163-16 16-16z" style="fill:var(--color1, #bbc0ff)"/>
    </symbol>
    <symbol id="icon-exercise" viewBox="0 0 47 32">
      <path fill="#29ba66" d="m19.408.337 9.569.248a.752.752 0 0 1 .512.221l5.791 5.791c.497.495.814 1.171.844 1.921v.006l.299 7.488a.541.541 0 0 0 .545.52l5.583-.029a2.583 2.583 0 0 1 2.582 2.577v.152a2.52 2.52 0 0 1-.743 1.793 2.514 2.514 0 0 1-1.787.743h-9.182c-1.366 0-2.556-1.19-2.556-2.556l-.001-4.89-7.011-.005.006 8.826a.751.751 0 0 1-.326.621l-10.53 7.22a3.005 3.005 0 0 1-3.735-.408 3.053 3.053 0 0 1-.687-1.055l-.007-.021c-.509-1.334.043-2.871 1.313-3.652l7.158-5.221.147-6.563-7.887.257h-.026a.749.749 0 0 1-.531-.22L1.302 6.655a3.015 3.015 0 0 1-.88-2.206c.02-.859.4-1.625.994-2.156l.003-.003c1.188-1.071 3.045-.982 4.228.201l4.99 4.99 17.131-.951-1.241-1.241-7.135.202-.101.002a2.57 2.57 0 0 1-1.815-.747l-.009-.009a2.56 2.56 0 0 1-.753-1.93v.005c.047-1.366 1.257-2.476 2.695-2.476zm19.654 6.85c1.76-1.76 4.623-1.76 6.383 0s1.759 4.622 0 6.383a4.52 4.52 0 0 1-6.383 0 4.52 4.52 0 0 1 0-6.383z" style="fill:var(--color2, #29ba66)"/>
    </symbol>
    <symbol id="icon-play" viewBox="0 0 32 32">
      <path fill="#3f9cbb" d="m25.313 29.858 5.117-8.267c1.378-2.228 1.571-5.743-.96-8.273L18.515 2.363c-1.852-1.852-5.231-2.844-8.273-.96L1.975 6.52c-2.244 1.389-2.608 4.511-.739 6.379a3.22 3.22 0 0 0 3.075.841l-.022.005 3.235-.808a1.637 1.637 0 0 1 1.551.429l9.393 9.393c.403.403.568.997.429 1.551l-.808 3.234a3.217 3.217 0 0 0 .847 3.054 4.097 4.097 0 0 0 6.379-.741zM15.245 10.691l-.786-.786-.786.786a.971.971 0 0 1-1.656-.693.97.97 0 0 1 .28-.683l.786-.786-.786-.786a.971.971 0 0 1 .693-1.656.97.97 0 0 1 .683.28l.786.786.786-.786a.971.971 0 0 1 1.656.693.97.97 0 0 1-.28.683l-.786.786.786.786a.971.971 0 0 1-.693 1.656.97.97 0 0 1-.683-.28zm5.897 5.897a.973.973 0 0 1 .688-1.663c.269 0 .513.109.69.286a.974.974 0 0 1-1.378 1.376zm0 2.949a.974.974 0 0 1 1.378-1.376.974.974 0 0 1-1.377 1.376zm2.949-2.948a.974.974 0 1 1 1.378 0 .97.97 0 0 1-1.376 0zm0 2.948a.974.974 0 0 1 1.377-1.376.974.974 0 0 1-1.377 1.376z" style="fill:var(--color3, #3f9cbb)"/>
    </symbol>
    <symbol id="icon-self-care" viewBox="0 0 32 32">
      <path fill="#e6a532" d="M.438 24.286c.054.823.111 1.672.165 2.549l.001.018.214 2.884a1.564 1.564 0 0 0 1.445 1.446l2.902.215c5.772.361 10.143.588 13.827.231 4.302-.417 7.34-1.645 9.562-3.867 4.018-4.018 4.011-10.321-.016-14.348-1.81-1.81-4.279-2.918-6.835-3.117-.198-2.556-1.307-5.024-3.117-6.835C14.558-.566 8.256-.573 4.238 3.446-.619 8.303-.199 14.662.438 24.286zm9.764-11.332 2.948 2.948 2.942-2.942 2.948 2.948-2.942 2.941 2.948 2.948-2.941 2.941-2.948-2.948-2.941 2.941-2.948-2.948 2.942-2.942-2.948-2.948 2.942-2.942z" style="fill:var(--color4, #e6a532)"/>
    </symbol>
    <symbol id="icon-social" viewBox="0 0 24 32">
      <path fill="#5a1cbb" d="M14.667 14.921c1.53 1.53 4.192 1.841 6.162-.129a4.272 4.272 0 0 0 0-6.034l-5.741-5.741c-1.541-1.54-4.202-1.833-6.163.129a4.275 4.275 0 0 0-.433 5.529L6.487 10.68c-.428.428-.101 1.166.507 1.131l4.312-.249 3.36 3.36zm3.649-3.675a.82.82 0 0 1-.573 1.409.82.82 0 0 1-.588-.248.822.822 0 1 1 1.162-1.162zm-6.878-4.555a.82.82 0 0 1 .568-1.414.82.82 0 0 1 .593.253.82.82 0 0 1-1.162 1.161zm4.02 1.697a.82.82 0 0 1-.573 1.409.82.82 0 0 1-.821-.821.82.82 0 0 1 1.395-.588zm2.193 11.995-5.741-5.741a4.273 4.273 0 0 0-6.034 0c-1.943 1.943-1.683 4.608-.129 6.163l3.36 3.36-.249 4.311c-.035.604.7.938 1.131.507l2.005-2.005a4.273 4.273 0 0 0 5.529-.433c1.939-1.939 1.688-4.604.129-6.162zM8.26 18.317a.822.822 0 1 1 1.162-1.162.82.82 0 0 1-1.162 1.161zm2.858 2.858a.82.82 0 0 1 .568-1.414.82.82 0 0 1 .593.253.82.82 0 0 1-1.162 1.161zm2.859 2.858a.822.822 0 1 1 1.162-1.162.82.82 0 0 1-1.162 1.161z" style="fill:var(--color5, #5a1cbb)"/>
    </symbol>
    <symbol id="icon-study" viewBox="0 0 32 32">
      <path fill="#f04667" d="M13.459.606a.757.757 0 0 1 1.072 0l.536.536L3.814 12.395c-.887.887-.851 2.364.036 3.251l4.914 4.914a2.271 2.271 0 0 0 .444 2.588 2.271 2.271 0 0 0 2.601.438l-.014.006 4.914 4.914c.886.886 2.364.922 3.251.036l11.253-11.253.536.535a.757.757 0 0 1 0 1.072l-12.86 12.861a.755.755 0 0 1-1.072 0l-6.022-6.023c-.286.14-.623.221-.979.221a2.271 2.271 0 0 1-1.609-.665l-2.143-2.143a2.271 2.271 0 0 1-.438-2.601l-.006.014-6.021-6.021a.757.757 0 0 1 0-1.072zm10.739 8.623a3.75 3.75 0 0 1 2.157 1.058l4.287 4.287a.757.757 0 0 1 0 1.072L18.853 27.435a.757.757 0 0 1-1.072 0l-5.358-5.359a.757.757 0 0 0-1.072 0zm-4.273-6.444a.757.757 0 0 1 1.072 0c1.818 1.818 2.381 3.637 2.502 4.999L11.207 20.075c.141-.619.478-3.023-2-5.502a.757.757 0 0 1 0-1.072zM16.71 1.713a.755.755 0 0 1 1.072 0l.536.536L8.137 12.43c-.411.412-.665.98-.665 1.608s.254 1.196.665 1.608c1.622 1.622 1.701 3.117 1.638 3.781l-4.853-4.853a.757.757 0 0 1 0-1.072z" style="fill:var(--color6, #f04667)"/>
    </symbol>
    <symbol id="icon-work" viewBox="0 0 32 32">
      <path fill="#d96c47" d="m7.569 4.225 6.264 12.519c.126.276.301.535.527.762s.485.401.694.493l12.586 6.298-6.381 6.381c-.588.589-1.401.953-2.3.953s-1.711-.364-2.3-.953L1.188 15.207c-.589-.588-.954-1.402-.954-2.3s.364-1.712.953-2.3l6.381-6.381zM15.405.988l4.39 4.39.836-.836c.428-.427 1.02-.692 1.672-.692s1.244.264 1.673.692l3.345 3.345c.427.428.692 1.02.692 1.672s-.264 1.244-.692 1.673l-.836.836 4.39 4.391c.589.588.953 1.401.953 2.3s-.364 1.711-.953 2.3l-1.915 1.915-13.113-6.557a.796.796 0 0 1-.234-.167.797.797 0 0 1-.165-.229l-.002-.005L8.89 2.904 10.805.989c.588-.589 1.402-.953 2.3-.953s1.711.364 2.3.953zm6.9 5.227-.836.836 3.345 3.345.836-.836-3.345-3.345z" style="fill:var(--color7, #d96c47)"/>
    </symbol>
  </defs>
</svg>